<svg width="428" height="926" viewBox="0 0 428 926" fill="none" xmlns="http://www.w3.org/2000/svg">
<path fill-rule="evenodd" clip-rule="evenodd" d="M-40.366 245.125C-104.733 212.135 -243.764 254.225 -287.425 211.721C-326.005 174.164 -222.862 136.702 -192.196 97.3199C-165.939 63.5997 -174.159 17.333 -120.176 -3.06509C-65.9939 -23.5389 6.72223 -3.19538 72.1613 -2.57233C127.38 -2.04659 182.279 -10.3504 234.434 0.311187C290.054 11.681 338.649 32.3215 374.301 59.1908C412.185 87.7417 444.628 121.287 442.057 156.785C439.51 191.967 405.243 224.721 360.567 248.848C320.319 270.583 253.188 264.239 208.45 282.941C142.894 310.346 122.889 393.421 43.5708 381.365C-39.8729 368.683 23.9636 278.096 -40.366 245.125Z" fill="#FD7468"/>
<path fill-rule="evenodd" clip-rule="evenodd" d="M133.109 812.455C71.8575 825.456 16.9167 859.249 -44.764 844.664C-111.371 828.914 -163.002 783.009 -210.404 731.228C-282.605 652.358 -396.243 580.35 -383.746 474.367C-371.039 366.598 -253.795 310.974 -156.351 272.803C-71.573 239.595 29.0158 231.213 107.773 281.831C176.501 326.005 151.762 436.44 201.379 502.725C273.134 598.585 475.946 623.664 450.399 739.562C425.332 853.29 243.482 789.028 133.109 812.455Z" fill="#6DB4E4"/>
<path fill-rule="evenodd" clip-rule="evenodd" d="M140.109 802.549C78.8575 815.55 23.9167 849.343 -37.764 834.758C-104.371 819.008 -156.002 773.102 -203.404 721.322C-275.605 642.451 -389.243 570.443 -376.746 464.46C-364.039 356.692 -246.795 301.067 -149.351 262.897C-64.573 229.688 36.0158 221.306 114.773 271.925C183.501 316.098 158.762 426.533 208.379 492.818C280.134 588.679 482.946 613.758 457.399 729.656C432.332 843.383 250.482 779.121 140.109 802.549Z" stroke="white"/>
<path d="M277 209L171.5 306.5L47 188V-15L90.5 -40.5L253.5 -28.5L350.5 43L403 103.5L277 209Z" fill="#FD7468"/>
<path fill-rule="evenodd" clip-rule="evenodd" d="M15.7259 1095.69C-24.0909 1044.54 -58.9543 984.062 -48.6766 920.06C-38.9609 859.559 18.9214 824.81 65.5997 785.111C111.452 746.115 154.828 701.96 214.729 696.04C285.418 689.054 360.27 702.445 412.255 750.853C468.938 803.635 507.721 881.472 496.095 958.048C484.991 1031.19 414.044 1073.15 356.302 1119.39C302.11 1162.79 247.998 1217.03 178.736 1212.21C109.47 1207.39 58.376 1150.48 15.7259 1095.69Z" fill="#255ED6"/>
<path fill-rule="evenodd" clip-rule="evenodd" d="M17.7262 1115.69C-22.0906 1064.54 -56.954 1004.06 -46.6764 940.061C-36.9607 879.559 20.9216 844.81 67.6 805.111C113.452 766.115 156.828 721.96 216.729 716.04C287.418 709.054 362.27 722.445 414.255 770.853C470.938 823.636 509.721 901.472 498.096 978.048C486.992 1051.19 416.044 1093.15 358.302 1139.39C304.11 1182.79 249.998 1237.03 180.736 1232.21C111.47 1227.39 60.3762 1170.48 17.7262 1115.69Z" stroke="white"/>
<path fill-rule="evenodd" clip-rule="evenodd" d="M721.696 -71.4125C833.859 -80.6955 963.447 -72.4842 995.881 15.0023C1028.23 102.257 942.38 221.778 866.242 318.486C807.591 392.982 713.547 420.252 633.348 475.481C527.406 548.438 427.104 716.265 329.111 688.379C228.301 659.692 361.958 474.816 322.046 386.895C278.064 290.007 43.1878 300.32 98.0214 179.312C151.601 61.0716 342.711 109.977 470.875 58.4538C560.042 22.6077 633.968 -64.1517 721.696 -71.4125Z" fill="#167EE6"/>
</svg>
